<svg xmlns="http://www.w3.org/2000/svg" xmlns:xlink="http://www.w3.org/1999/xlink" viewBox="0 0 24 24" fill="#3269FF">
  <path d="M5 3C3.897 3 3 3.897 3 5L3 19C3 20.103 3.897 21 5 21L11.621094 21L14.414062 21L19 21C20.103 21 21 20.103 21 19L21 5C21 3.897 20.103 3 19 3L5 3 z M 5 5L19 5L19.001953 19L14.414062 19L14.414062 15.035156L16.779297 15.035156L17.130859 12.310547L14.429688 12.310547L14.429688 10.574219C14.429687 9.7862188 14.649297 9.2539062 15.779297 9.2539062L17.207031 9.2539062L17.207031 6.8222656C16.512031 6.7512656 15.814234 6.71675 15.115234 6.71875C13.041234 6.71875 11.621094 7.9845938 11.621094 10.308594L11.621094 12.314453L9.2773438 12.314453L9.2773438 15.039062L11.621094 15.039062L11.621094 19L5 19L5 5 z" fill="#3269FF" />
</svg>