<svg xmlns="http://www.w3.org/2000/svg" viewBox="0 0 401.19 247.25"><defs><style>.cls-1{fill:#3269ff;}.cls-2{fill:#1d2445;}</style></defs><g id="Layer_2" data-name="Layer 2"><g id="Layer_1-2" data-name="Layer 1"><path class="cls-1" d="M185.69,206.32l91.89-91.89V87.75L174.09,191.25A123.91,123.91,0,0,0,185.69,206.32Z"/><path class="cls-1" d="M210.07,227.2l67.51-67.51V133L195,215.61A125,125,0,0,0,210.07,227.2Z"/><path class="cls-1" d="M240.83,241.7,277.58,205V178.28L221.86,234A122.3,122.3,0,0,0,240.83,241.7Z"/><path class="cls-1" d="M255.78,245.34a125.27,125.27,0,0,0,21.8,1.91V223.54Z"/><path class="cls-1" d="M167.27,179.48,277.58,69.17V42.49l-118,118A122.63,122.63,0,0,0,167.27,179.48Z"/><path class="cls-1" d="M254,2.26A123.75,123.75,0,0,0,156.22,100Z"/><path class="cls-1" d="M154,123.63a124.21,124.21,0,0,0,1.94,22L277.58,23.91V0c-.93,0-1.87,0-2.8,0L154,120.82C154,121.76,154,122.69,154,123.63Z"/><path class="cls-2" d="M277.57,0V247.25A123.63,123.63,0,0,0,277.57,0Z"/><path class="cls-2" d="M135.85,123.63A130.8,130.8,0,0,1,218.37,2.21a123.63,123.63,0,1,0,0,242.83A130.78,130.78,0,0,1,135.85,123.63Z"/><path class="cls-2" d="M117.5,233.16a109.71,109.71,0,0,1,0-219.07A130.81,130.81,0,0,1,142.45,1.44a123.63,123.63,0,1,0-18.82,245.81,124.25,124.25,0,0,0,18.82-1.44A130.81,130.81,0,0,1,117.5,233.16Z"/></g></g></svg>