<svg xmlns="http://www.w3.org/2000/svg" viewBox="0 0 1595.99 1595.99"><defs><style>.cls-1{fill:#1d2445;}</style></defs><g id="Layer_2" data-name="Layer 2"><g id="Layer_1-2" data-name="Layer 1"><path class="cls-1" d="M1596,1596h-3C1593,717.61,878.38,3,0,3V0A1608.22,1608.22,0,0,1,321.65,32.42a1587.81,1587.81,0,0,1,299.58,93A1596.31,1596.31,0,0,1,892.34,272.57a1607.26,1607.26,0,0,1,236.2,194.89,1607.19,1607.19,0,0,1,194.88,236.2,1596.22,1596.22,0,0,1,147.15,271.1,1588.13,1588.13,0,0,1,93,299.59A1608.12,1608.12,0,0,1,1596,1596Z"/></g></g></svg>