<svg xmlns="http://www.w3.org/2000/svg" viewBox="0 0 30.74 30.98"><defs><style>.cls-1{fill:#f6f5f1;}.cls-2{fill:#1d2445;}</style></defs><g id="Layer_2" data-name="Layer 2"><g id="Layer_1-2" data-name="Layer 1"><path class="cls-1" d="M15.47,1,17,12a2,2,0,0,0,.78,1.36,1.73,1.73,0,0,0,1.35.58L30,15.49,19.14,17a2.78,2.78,0,0,0-1.35.58A1.74,1.74,0,0,0,17.21,19L15.66,30,14.11,19a1.94,1.94,0,0,0-.77-1.35A1.74,1.74,0,0,0,12,17L1.16,15.49,12,13.94a2.92,2.92,0,0,0,1.35-.58A1.76,1.76,0,0,0,13.92,12Z"/><path class="cls-2" d="M15.47,31h0c-.39,0-1-.39-1-.78L13,19.17a1,1,0,0,0-.38-.78,1,1,0,0,0-.78-.38l-11-1.55a.89.89,0,0,1-.77-1,.89.89,0,0,1,.77-1L11.6,13a1.42,1.42,0,0,0,.77-.39,1,1,0,0,0,.39-.77l1.55-11a.88.88,0,0,1,1-.77.89.89,0,0,1,1,.77l1.55,11a1,1,0,0,0,.38.77A1,1,0,0,0,19,13l11,1.55a.89.89,0,0,1,.78,1,.89.89,0,0,1-.78,1L19.14,18a1,1,0,0,0-.77.38,1,1,0,0,0-.39.78l-1.55,11C16.43,30.59,15.85,31,15.47,31ZM7.73,15.49l4.26.58a2.69,2.69,0,0,1,1.93,1,3.74,3.74,0,0,1,1,1.93l.58,4.26L16.05,19A2.68,2.68,0,0,1,17,17a3.66,3.66,0,0,1,1.94-1l4.25-.58L19,14.91a2.69,2.69,0,0,1-1.94-1,3.65,3.65,0,0,1-1-1.94l-.58-4.26L14.89,12a2.69,2.69,0,0,1-1,1.94,3.74,3.74,0,0,1-1.93,1Z"/></g></g></svg>